<svg xmlns:xlink="http://www.w3.org/1999/xlink" height="400" width="560" version="1.1" xmlns="http://www.w3.org/2000/svg"><defs><clipPath id="highcharts-21"><rect stroke-width="0" height="400" width="9999" y="0" x="0" fill="none" ry="0" rx="0"></rect></clipPath><clipPath id="highcharts-22"><rect stroke-width="0" height="298" width="511" y="0" x="0" fill="none" ry="0" rx="0"></rect></clipPath></defs><rect stroke-width="0" height="400" width="560" y="0" x="0" fill="#FFFFFF" ry="5" rx="5"></rect><g  class="highcharts-grid"></g><g  class="highcharts-grid"><path  stroke-width="1" stroke="#C0C0C0" d="M 39 287.5 L 550 287.5" fill="none"></path><path  stroke-width="1" stroke="#C0C0C0" d="M 39 238.5 L 550 238.5" fill="none"></path><path  stroke-width="1" stroke="#C0C0C0" d="M 39 189.5 L 550 189.5" fill="none"></path><path  stroke-width="1" stroke="#C0C0C0" d="M 39 139.5 L 550 139.5" fill="none"></path><path  stroke-width="1" stroke="#C0C0C0" d="M 39 90.5 L 550 90.5" fill="none"></path><path  stroke-width="1" stroke="#C0C0C0" d="M 39 40.5 L 550 40.5" fill="none"></path><path  stroke-width="1" stroke="#C0C0C0" d="M 39 337.5 L 550 337.5" fill="none"></path></g><g  class="highcharts-series-group"><g clip-path="url(#highcharts-22)" transform="translate(39,40)" visibility="visible" class="highcharts-series"><path transform="translate(1,1)" stroke-opacity="0.05"  stroke-width="5" stroke="rgb(0, 0, 0)" d="M 5.009803921568627 158.4 L 20.175708830454482 128.7 L 35.34161373934033 168.3 L 50.50751864822619 198 L 65.67342355711205 207.9 L 80.8393284659979 207.9 L 96.00523337488374 99 L 111.17113828376961 158.4 L 126.33704319265546 158.4 L 141.5029481015413 198 L 156.66885301042717 108.9 L 171.834757919313 178.2 L 187.00066282819887 89.1 L 202.16656773708473 168.3 L 217.58523772778534 148.5 L 232.7511426366712 217.8 L 247.91704754555704 198 L 263.08295245444293 237.6 L 278.24885736332874 227.7 L 293.4147622722146 188.1 L 308.58066718110047 188.1 L 323.74657208998633 158.4 L 338.9124769988722 59.4 L 354.078381907758 39.6 L 369.24428681664386 59.4 L 384.4101917255297 49.5 L 399.5760966344156 69.3 L 414.74200154330146 79.2 L 429.9079064521873 49.5 L 445.0738113610731 99 L 460.239716269959 138.6 L 460.239716269959 138.6 L 475.40562117884485 148.5 L 475.40562117884485 148.5 L 475.40562117884485 148.5 L 490.82429116954546 207.9 L 490.82429116954546 207.9 L 490.82429116954546 207.9 L 505.9901960784313 217.8 L 505.9901960784313 217.8" fill="none"></path><path transform="translate(1,1)" stroke-opacity="0.1"  stroke-width="3" stroke="rgb(0, 0, 0)" d="M 5.009803921568627 158.4 L 20.175708830454482 128.7 L 35.34161373934033 168.3 L 50.50751864822619 198 L 65.67342355711205 207.9 L 80.8393284659979 207.9 L 96.00523337488374 99 L 111.17113828376961 158.4 L 126.33704319265546 158.4 L 141.5029481015413 198 L 156.66885301042717 108.9 L 171.834757919313 178.2 L 187.00066282819887 89.1 L 202.16656773708473 168.3 L 217.58523772778534 148.5 L 232.7511426366712 217.8 L 247.91704754555704 198 L 263.08295245444293 237.6 L 278.24885736332874 227.7 L 293.4147622722146 188.1 L 308.58066718110047 188.1 L 323.74657208998633 158.4 L 338.9124769988722 59.4 L 354.078381907758 39.6 L 369.24428681664386 59.4 L 384.4101917255297 49.5 L 399.5760966344156 69.3 L 414.74200154330146 79.2 L 429.9079064521873 49.5 L 445.0738113610731 99 L 460.239716269959 138.6 L 460.239716269959 138.6 L 475.40562117884485 148.5 L 475.40562117884485 148.5 L 475.40562117884485 148.5 L 490.82429116954546 207.9 L 490.82429116954546 207.9 L 490.82429116954546 207.9 L 505.9901960784313 217.8 L 505.9901960784313 217.8" fill="none"></path><path transform="translate(1,1)" stroke-opacity="0.15000000000000002"  stroke-width="1" stroke="rgb(0, 0, 0)" d="M 5.009803921568627 158.4 L 20.175708830454482 128.7 L 35.34161373934033 168.3 L 50.50751864822619 198 L 65.67342355711205 207.9 L 80.8393284659979 207.9 L 96.00523337488374 99 L 111.17113828376961 158.4 L 126.33704319265546 158.4 L 141.5029481015413 198 L 156.66885301042717 108.9 L 171.834757919313 178.2 L 187.00066282819887 89.1 L 202.16656773708473 168.3 L 217.58523772778534 148.5 L 232.7511426366712 217.8 L 247.91704754555704 198 L 263.08295245444293 237.6 L 278.24885736332874 227.7 L 293.4147622722146 188.1 L 308.58066718110047 188.1 L 323.74657208998633 158.4 L 338.9124769988722 59.4 L 354.078381907758 39.6 L 369.24428681664386 59.4 L 384.4101917255297 49.5 L 399.5760966344156 69.3 L 414.74200154330146 79.2 L 429.9079064521873 49.5 L 445.0738113610731 99 L 460.239716269959 138.6 L 460.239716269959 138.6 L 475.40562117884485 148.5 L 475.40562117884485 148.5 L 475.40562117884485 148.5 L 490.82429116954546 207.9 L 490.82429116954546 207.9 L 490.82429116954546 207.9 L 505.9901960784313 217.8 L 505.9901960784313 217.8" fill="none"></path><path stroke-width="2" stroke="#4572A7" d="M 5.009803921568627 158.4 L 20.175708830454482 128.7 L 35.34161373934033 168.3 L 50.50751864822619 198 L 65.67342355711205 207.9 L 80.8393284659979 207.9 L 96.00523337488374 99 L 111.17113828376961 158.4 L 126.33704319265546 158.4 L 141.5029481015413 198 L 156.66885301042717 108.9 L 171.834757919313 178.2 L 187.00066282819887 89.1 L 202.16656773708473 168.3 L 217.58523772778534 148.5 L 232.7511426366712 217.8 L 247.91704754555704 198 L 263.08295245444293 237.6 L 278.24885736332874 227.7 L 293.4147622722146 188.1 L 308.58066718110047 188.1 L 323.74657208998633 158.4 L 338.9124769988722 59.4 L 354.078381907758 39.6 L 369.24428681664386 59.4 L 384.4101917255297 49.5 L 399.5760966344156 69.3 L 414.74200154330146 79.2 L 429.9079064521873 49.5 L 445.0738113610731 99 L 460.239716269959 138.6 L 460.239716269959 138.6 L 475.40562117884485 148.5 L 475.40562117884485 148.5 L 475.40562117884485 148.5 L 490.82429116954546 207.9 L 490.82429116954546 207.9 L 490.82429116954546 207.9 L 505.9901960784313 217.8 L 505.9901960784313 217.8" fill="none"></path><path stroke-width="0" stroke="#FFFFFF" d="M 505.9901960784313 213.8 C 511.3181960784313 213.8 511.3181960784313 221.8 505.9901960784313 221.8 C 500.66219607843135 221.8 500.66219607843135 213.8 505.9901960784313 213.8 Z" fill="#4572A7"></path><path stroke-width="0" stroke="#FFFFFF" d="M 505.9901960784313 213.8 C 511.3181960784313 213.8 511.3181960784313 221.8 505.9901960784313 221.8 C 500.66219607843135 221.8 500.66219607843135 213.8 505.9901960784313 213.8 Z" fill="#4572A7"></path><path stroke-width="0" stroke="#FFFFFF" d="M 490.82429116954546 203.9 C 496.15229116954544 203.9 496.15229116954544 211.9 490.82429116954546 211.9 C 485.4962911695455 211.9 485.4962911695455 203.9 490.82429116954546 203.9 Z" fill="#4572A7"></path><path stroke-width="0" stroke="#FFFFFF" d="M 490.82429116954546 203.9 C 496.15229116954544 203.9 496.15229116954544 211.9 490.82429116954546 211.9 C 485.4962911695455 211.9 485.4962911695455 203.9 490.82429116954546 203.9 Z" fill="#4572A7"></path><path stroke-width="0" stroke="#FFFFFF" d="M 490.82429116954546 203.9 C 496.15229116954544 203.9 496.15229116954544 211.9 490.82429116954546 211.9 C 485.4962911695455 211.9 485.4962911695455 203.9 490.82429116954546 203.9 Z" fill="#4572A7"></path><path stroke-width="0" stroke="#FFFFFF" d="M 475.40562117884485 144.5 C 480.7336211788448 144.5 480.7336211788448 152.5 475.40562117884485 152.5 C 470.0776211788449 152.5 470.0776211788449 144.5 475.40562117884485 144.5 Z" fill="#4572A7"></path><path stroke-width="0" stroke="#FFFFFF" d="M 475.40562117884485 144.5 C 480.7336211788448 144.5 480.7336211788448 152.5 475.40562117884485 152.5 C 470.0776211788449 152.5 470.0776211788449 144.5 475.40562117884485 144.5 Z" fill="#4572A7"></path><path stroke-width="0" stroke="#FFFFFF" d="M 475.40562117884485 144.5 C 480.7336211788448 144.5 480.7336211788448 152.5 475.40562117884485 152.5 C 470.0776211788449 152.5 470.0776211788449 144.5 475.40562117884485 144.5 Z" fill="#4572A7"></path><path stroke-width="0" stroke="#FFFFFF" d="M 460.239716269959 134.6 C 465.56771626995896 134.6 465.56771626995896 142.6 460.239716269959 142.6 C 454.911716269959 142.6 454.911716269959 134.6 460.239716269959 134.6 Z" fill="#4572A7"></path><path stroke-width="0" stroke="#FFFFFF" d="M 460.239716269959 134.6 C 465.56771626995896 134.6 465.56771626995896 142.6 460.239716269959 142.6 C 454.911716269959 142.6 454.911716269959 134.6 460.239716269959 134.6 Z" fill="#4572A7"></path><path stroke-width="0" stroke="#FFFFFF" d="M 445.0738113610731 95 C 450.4018113610731 95 450.4018113610731 103 445.0738113610731 103 C 439.74581136107315 103 439.74581136107315 95 445.0738113610731 95 Z" fill="#4572A7"></path><path stroke-width="0" stroke="#FFFFFF" d="M 429.9079064521873 45.5 C 435.2359064521873 45.5 435.2359064521873 53.5 429.9079064521873 53.5 C 424.57990645218734 53.5 424.57990645218734 45.5 429.9079064521873 45.5 Z" fill="#4572A7"></path><path stroke-width="0" stroke="#FFFFFF" d="M 414.74200154330146 75.2 C 420.07000154330143 75.2 420.07000154330143 83.2 414.74200154330146 83.2 C 409.4140015433015 83.2 409.4140015433015 75.2 414.74200154330146 75.2 Z" fill="#4572A7"></path><path stroke-width="0" stroke="#FFFFFF" d="M 399.5760966344156 65.3 C 404.90409663441557 65.3 404.90409663441557 73.3 399.5760966344156 73.3 C 394.2480966344156 73.3 394.2480966344156 65.3 399.5760966344156 65.3 Z" fill="#4572A7"></path><path stroke-width="0" stroke="#FFFFFF" d="M 384.4101917255297 45.5 C 389.7381917255297 45.5 389.7381917255297 53.5 384.4101917255297 53.5 C 379.08219172552975 53.5 379.08219172552975 45.5 384.4101917255297 45.5 Z" fill="#4572A7"></path><path stroke-width="0" stroke="#FFFFFF" d="M 369.24428681664386 55.4 C 374.57228681664384 55.4 374.57228681664384 63.4 369.24428681664386 63.4 C 363.9162868166439 63.4 363.9162868166439 55.4 369.24428681664386 55.4 Z" fill="#4572A7"></path><path stroke-width="0" stroke="#FFFFFF" d="M 354.078381907758 35.6 C 359.406381907758 35.6 359.406381907758 43.6 354.078381907758 43.6 C 348.750381907758 43.6 348.750381907758 35.6 354.078381907758 35.6 Z" fill="#4572A7"></path><path stroke-width="0" stroke="#FFFFFF" d="M 338.9124769988722 55.4 C 344.24047699887217 55.4 344.24047699887217 63.4 338.9124769988722 63.4 C 333.5844769988722 63.4 333.5844769988722 55.4 338.9124769988722 55.4 Z" fill="#4572A7"></path><path stroke-width="0" stroke="#FFFFFF" d="M 323.74657208998633 154.4 C 329.0745720899863 154.4 329.0745720899863 162.4 323.74657208998633 162.4 C 318.41857208998636 162.4 318.41857208998636 154.4 323.74657208998633 154.4 Z" fill="#4572A7"></path><path stroke-width="0" stroke="#FFFFFF" d="M 308.58066718110047 184.1 C 313.90866718110044 184.1 313.90866718110044 192.1 308.58066718110047 192.1 C 303.2526671811005 192.1 303.2526671811005 184.1 308.58066718110047 184.1 Z" fill="#4572A7"></path><path stroke-width="0" stroke="#FFFFFF" d="M 293.4147622722146 184.1 C 298.7427622722146 184.1 298.7427622722146 192.1 293.4147622722146 192.1 C 288.0867622722146 192.1 288.0867622722146 184.1 293.4147622722146 184.1 Z" fill="#4572A7"></path><path stroke-width="0" stroke="#FFFFFF" d="M 278.24885736332874 223.7 C 283.5768573633287 223.7 283.5768573633287 231.7 278.24885736332874 231.7 C 272.92085736332876 231.7 272.92085736332876 223.7 278.24885736332874 223.7 Z" fill="#4572A7"></path><path stroke-width="0" stroke="#FFFFFF" d="M 263.08295245444293 233.6 C 268.4109524544429 233.6 268.4109524544429 241.6 263.08295245444293 241.6 C 257.75495245444296 241.6 257.75495245444296 233.6 263.08295245444293 233.6 Z" fill="#4572A7"></path><path stroke-width="0" stroke="#FFFFFF" d="M 247.91704754555704 194 C 253.24504754555704 194 253.24504754555704 202 247.91704754555704 202 C 242.58904754555704 202 242.58904754555704 194 247.91704754555704 194 Z" fill="#4572A7"></path><path stroke-width="0" stroke="#FFFFFF" d="M 232.7511426366712 213.8 C 238.0791426366712 213.8 238.0791426366712 221.8 232.7511426366712 221.8 C 227.4231426366712 221.8 227.4231426366712 213.8 232.7511426366712 213.8 Z" fill="#4572A7"></path><path stroke-width="0" stroke="#FFFFFF" d="M 217.58523772778534 144.5 C 222.91323772778534 144.5 222.91323772778534 152.5 217.58523772778534 152.5 C 212.25723772778534 152.5 212.25723772778534 144.5 217.58523772778534 144.5 Z" fill="#4572A7"></path><path stroke-width="0" stroke="#FFFFFF" d="M 202.16656773708473 164.3 C 207.49456773708474 164.3 207.49456773708474 172.3 202.16656773708473 172.3 C 196.83856773708473 172.3 196.83856773708473 164.3 202.16656773708473 164.3 Z" fill="#4572A7"></path><path stroke-width="0" stroke="#FFFFFF" d="M 187.00066282819887 85.1 C 192.32866282819887 85.1 192.32866282819887 93.1 187.00066282819887 93.1 C 181.67266282819887 93.1 181.67266282819887 85.1 187.00066282819887 85.1 Z" fill="#4572A7"></path><path stroke-width="0" stroke="#FFFFFF" d="M 171.834757919313 174.2 C 177.162757919313 174.2 177.162757919313 182.2 171.834757919313 182.2 C 166.506757919313 182.2 166.506757919313 174.2 171.834757919313 174.2 Z" fill="#4572A7"></path><path stroke-width="0" stroke="#FFFFFF" d="M 156.66885301042717 104.9 C 161.99685301042717 104.9 161.99685301042717 112.9 156.66885301042717 112.9 C 151.34085301042717 112.9 151.34085301042717 104.9 156.66885301042717 104.9 Z" fill="#4572A7"></path><path stroke-width="0" stroke="#FFFFFF" d="M 141.5029481015413 194 C 146.8309481015413 194 146.8309481015413 202 141.5029481015413 202 C 136.1749481015413 202 136.1749481015413 194 141.5029481015413 194 Z" fill="#4572A7"></path><path stroke-width="0" stroke="#FFFFFF" d="M 126.33704319265546 154.4 C 131.66504319265547 154.4 131.66504319265547 162.4 126.33704319265546 162.4 C 121.00904319265545 162.4 121.00904319265545 154.4 126.33704319265546 154.4 Z" fill="#4572A7"></path><path stroke-width="0" stroke="#FFFFFF" d="M 111.17113828376961 154.4 C 116.49913828376961 154.4 116.49913828376961 162.4 111.17113828376961 162.4 C 105.8431382837696 162.4 105.8431382837696 154.4 111.17113828376961 154.4 Z" fill="#4572A7"></path><path stroke-width="0" stroke="#FFFFFF" d="M 96.00523337488374 95 C 101.33323337488375 95 101.33323337488375 103 96.00523337488374 103 C 90.67723337488374 103 90.67723337488374 95 96.00523337488374 95 Z" fill="#4572A7"></path><path stroke-width="0" stroke="#FFFFFF" d="M 80.8393284659979 203.9 C 86.1673284659979 203.9 86.1673284659979 211.9 80.8393284659979 211.9 C 75.51132846599789 211.9 75.51132846599789 203.9 80.8393284659979 203.9 Z" fill="#4572A7"></path><path stroke-width="0" stroke="#FFFFFF" d="M 65.67342355711205 203.9 C 71.00142355711205 203.9 71.00142355711205 211.9 65.67342355711205 211.9 C 60.34542355711204 211.9 60.34542355711204 203.9 65.67342355711205 203.9 Z" fill="#4572A7"></path><path stroke-width="0" stroke="#FFFFFF" d="M 50.50751864822619 194 C 55.83551864822619 194 55.83551864822619 202 50.50751864822619 202 C 45.179518648226185 202 45.179518648226185 194 50.50751864822619 194 Z" fill="#4572A7"></path><path stroke-width="0" stroke="#FFFFFF" d="M 35.34161373934033 164.3 C 40.669613739340335 164.3 40.669613739340335 172.3 35.34161373934033 172.3 C 30.013613739340332 172.3 30.013613739340332 164.3 35.34161373934033 164.3 Z" fill="#4572A7"></path><path stroke-width="0" stroke="#FFFFFF" d="M 20.175708830454482 124.69999999999999 C 25.50370883045448 124.69999999999999 25.50370883045448 132.7 20.175708830454482 132.7 C 14.847708830454483 132.7 14.847708830454483 124.69999999999999 20.175708830454482 124.69999999999999 Z" fill="#4572A7"></path><path stroke-width="0" stroke="#FFFFFF" d="M 5.009803921568627 154.4 C 10.337803921568627 154.4 10.337803921568627 162.4 5.009803921568627 162.4 C -0.31819607843137265 162.4 -0.31819607843137265 154.4 5.009803921568627 154.4 Z" fill="#4572A7"></path></g></g><text  class="highcharts-title" text-anchor="middle" style="font-family:'lucida grande', 'lucida sans unicode', verdana, arial, helvetica, sans-serif;font-size:16px;color:#3e576f;fill:#3e576f;" y="25" x="280"><tspan x="280">CPU 平均负载</tspan></text><g transform="translate(235,360)"  class="highcharts-legend"><rect visibility="visible" stroke="#909090" stroke-width="1" height="24" width="90" y="0.5" x="0.5" fill="none" ry="5" rx="5"></rect><g clip-path="url(#highcharts-21)" ><g><g transform="translate(8,3)"  class="highcharts-legend-item"><path stroke="#4572A7" stroke-width="2" d="M 0 11 L 16 11" fill="none"></path><path stroke="#4572A7" d="M 8 7 C 13.328 7 13.328 15 8 15 C 2.6719999999999997 15 2.6719999999999997 7 8 7 Z" fill="#4572A7"></path><text  text-anchor="start" style="font-family:'lucida grande', 'lucida sans unicode', verdana, arial, helvetica, sans-serif;font-size:12px;cursor:pointer;color:#3e576f;fill:#3e576f;" y="15" x="21"><tspan x="21">5min load</tspan></text></g></g></g></g><g  class="highcharts-axis"><text visibility="visible" text-anchor="middle" style="font-family:'lucida grande', 'lucida sans unicode', verdana, arial, helvetica, sans-serif;font-size:11px;color:#666;line-height:14px;fill:#666;" y="351" x="71.30843275756317"><tspan x="71.30843275756317">10:20</tspan></text><text visibility="visible" text-anchor="middle" style="font-family:'lucida grande', 'lucida sans unicode', verdana, arial, helvetica, sans-serif;font-size:11px;color:#666;line-height:14px;fill:#666;" y="351" x="222.9674818464217"><tspan x="222.9674818464217">10:30</tspan></text><text visibility="visible" text-anchor="middle" style="font-family:'lucida grande', 'lucida sans unicode', verdana, arial, helvetica, sans-serif;font-size:11px;color:#666;line-height:14px;fill:#666;" y="351" x="374.62653093528024"><tspan x="374.62653093528024">10:40</tspan></text><text visibility="visible" text-anchor="middle" style="font-family:'lucida grande', 'lucida sans unicode', verdana, arial, helvetica, sans-serif;font-size:11px;color:#666;line-height:14px;fill:#666;" y="351" x="526.2855800241388"><tspan x="526.2855800241388">10:50</tspan></text><path stroke-width="1" stroke="#C0D0E0" d="M 223.5 337 L 223.5 342" fill="none"></path><path stroke-width="1" stroke="#C0D0E0" d="M 375.5 337 L 375.5 342" fill="none"></path><path stroke-width="1" stroke="#C0D0E0" d="M 526.5 337 L 526.5 342" fill="none"></path><path stroke-width="1" stroke="#C0D0E0" d="M 71.5 337 L 71.5 342" fill="none"></path></g><g  class="highcharts-axis"><text visibility="visible" text-anchor="end" style="font-family:'lucida grande', 'lucida sans unicode', verdana, arial, helvetica, sans-serif;font-size:11px;width:236px;color:#666;line-height:14px;fill:#666;" y="343.1" x="31"><tspan x="31">1.05</tspan></text><text visibility="visible" text-anchor="end" style="font-family:'lucida grande', 'lucida sans unicode', verdana, arial, helvetica, sans-serif;font-size:11px;width:236px;color:#666;line-height:14px;fill:#666;" y="293.59999999999997" x="31"><tspan x="31">1.1</tspan></text><text visibility="visible" text-anchor="end" style="font-family:'lucida grande', 'lucida sans unicode', verdana, arial, helvetica, sans-serif;font-size:11px;width:236px;color:#666;line-height:14px;fill:#666;" y="244.1000000000001" x="31"><tspan x="31">1.15</tspan></text><text visibility="visible" text-anchor="end" style="font-family:'lucida grande', 'lucida sans unicode', verdana, arial, helvetica, sans-serif;font-size:11px;width:236px;color:#666;line-height:14px;fill:#666;" y="194.6000000000001" x="31"><tspan x="31">1.2</tspan></text><text visibility="visible" text-anchor="end" style="font-family:'lucida grande', 'lucida sans unicode', verdana, arial, helvetica, sans-serif;font-size:11px;width:236px;color:#666;line-height:14px;fill:#666;" y="145.10000000000005" x="31"><tspan x="31">1.25</tspan></text><text visibility="visible" text-anchor="end" style="font-family:'lucida grande', 'lucida sans unicode', verdana, arial, helvetica, sans-serif;font-size:11px;width:236px;color:#666;line-height:14px;fill:#666;" y="95.60000000000002" x="31"><tspan x="31">1.3</tspan></text><text visibility="visible" text-anchor="end" style="font-family:'lucida grande', 'lucida sans unicode', verdana, arial, helvetica, sans-serif;font-size:11px;width:236px;color:#666;line-height:14px;fill:#666;" y="46.1" x="31"><tspan x="31">1.35</tspan></text></g><path visibility="visible"  stroke-width="1" stroke="#C0D0E0" d="M 39 337.5 L 550 337.5" fill="none"></path><g visibility="hidden" style="padding:0;white-space:nowrap;"  class="highcharts-tooltip"><rect transform="translate(1,1)" stroke-opacity="0.05" stroke="rgb(0, 0, 0)"  fill-opacity="0.85" stroke-width="5" height="0" width="0" y="0" x="0" fill="none" ry="5" rx="5"></rect><rect transform="translate(1,1)" stroke-opacity="0.1" stroke="rgb(0, 0, 0)"  fill-opacity="0.85" stroke-width="3" height="0" width="0" y="0" x="0" fill="none" ry="5" rx="5"></rect><rect transform="translate(1,1)" stroke-opacity="0.15000000000000002" stroke="rgb(0, 0, 0)"  fill-opacity="0.85" stroke-width="1" height="0" width="0" y="0" x="0" fill="none" ry="5" rx="5"></rect><rect fill-opacity="0.85" stroke-width="2" height="0" width="0" y="0" x="0" fill="rgb(255,255,255)" ry="5" rx="5"></rect><text  style="font-family:'lucida grande', 'lucida sans unicode', verdana, arial, helvetica, sans-serif;font-size:12px;color:#333333;fill:#333333;" y="13" x="0"></text></g><text  text-anchor="end" style="font-family:'lucida grande', 'lucida sans unicode', verdana, arial, helvetica, sans-serif;font-size:10px;cursor:pointer;color:#909090;fill:#909090;" y="395" x="550"><tspan x="550">存量单证电子化管理系统</tspan></text><g  class="highcharts-tracker"><g clip-path="url(#highcharts-22)" transform="translate(39,40)" ><path style="" stroke-width="22" stroke="rgb(192,192,192)" stroke-opacity="0.000001" visibility="visible" stroke-linejoin="bevel"  d="M -4.990196078431373 158.4 L 5.009803921568627 158.4 L 20.175708830454482 128.7 L 35.34161373934033 168.3 L 50.50751864822619 198 L 65.67342355711205 207.9 L 80.8393284659979 207.9 L 96.00523337488374 99 L 111.17113828376961 158.4 L 126.33704319265546 158.4 L 141.5029481015413 198 L 156.66885301042717 108.9 L 171.834757919313 178.2 L 187.00066282819887 89.1 L 202.16656773708473 168.3 L 217.58523772778534 148.5 L 232.7511426366712 217.8 L 247.91704754555704 198 L 263.08295245444293 237.6 L 278.24885736332874 227.7 L 293.4147622722146 188.1 L 308.58066718110047 188.1 L 323.74657208998633 158.4 L 338.9124769988722 59.4 L 354.078381907758 39.6 L 369.24428681664386 59.4 L 384.4101917255297 49.5 L 399.5760966344156 69.3 L 414.74200154330146 79.2 L 429.9079064521873 49.5 L 445.0738113610731 99 L 460.239716269959 138.6 L 460.239716269959 138.6 L 475.40562117884485 148.5 L 475.40562117884485 148.5 L 475.40562117884485 148.5 L 490.82429116954546 207.9 L 490.82429116954546 207.9 L 490.82429116954546 207.9 L 505.9901960784313 217.8 L 505.9901960784313 217.8 L 515.9901960784314 217.8" fill="none"></path></g></g></svg>
